<?xml version="1.0" encoding="UTF-8" standalone="no"?>
<!DOCTYPE svg PUBLIC "-//W3C//DTD SVG 1.1//EN" "http://www.w3.org/Graphics/SVG/1.1/DTD/svg11.dtd">
<svg width="100%" height="100%" viewBox="0 0 1334 265" version="1.1" xmlns="http://www.w3.org/2000/svg" xmlns:xlink="http://www.w3.org/1999/xlink" xml:space="preserve" xmlns:serif="http://www.serif.com/" style="fill-rule:evenodd;clip-rule:evenodd;stroke-linejoin:round;stroke-miterlimit:2;">
    <g id="g7292" transform="matrix(0,8.0924,-8.0924,0,3125.06,-2434.42)">
        <rect id="path5921" x="301.965" y="353.704" width="31.445" height="32.469" style="fill:rgb(237,25,46);fill-rule:nonzero;"/>
        <rect id="path5923" x="303.176" y="354.948" width="29.027" height="29.971" style="fill:white;fill-rule:nonzero;"/>
        <path id="path5927" d="M317.69,379.915L330.668,371.687L330.668,356.707L317.7,364.945L304.693,356.672L304.695,371.653L317.69,379.915Z" style="fill:rgb(237,25,46);fill-rule:nonzero;"/>
        <path id="path5939" d="M304.109,333.172C303.833,333.745 303.443,334.53 303.443,335.949C303.443,336.523 303.524,336.93 303.589,337.142C303.849,338.122 304.759,339.692 307.457,339.692C308.041,339.692 308.659,339.617 309.212,339.42C310.754,338.877 311.55,337.579 311.55,336.1C311.55,335.42 311.388,334.923 311.323,334.682L308.497,334.682L308.497,336.915L306.693,336.915L306.693,332.689L312.753,332.704C312.85,332.96 312.948,333.217 313.029,333.474C313.159,333.927 313.403,335.013 313.403,336.327C313.403,336.779 313.403,337.987 312.785,339.239C312.656,339.48 312.347,340.069 311.778,340.582C311.112,341.185 309.763,341.985 307.505,341.985C306.807,341.985 304.775,341.925 303.248,340.447C301.59,338.847 301.574,336.628 301.574,335.979C301.574,334.5 301.85,333.655 302.062,333.022L304.109,333.172" style="fill:rgb(35,31,32);fill-rule:nonzero;"/>
        <rect id="path5941" x="300.828" y="328.787" width="12.414" height="2.052" style="fill:rgb(35,31,32);fill-rule:nonzero;"/>
        <path id="path5945" d="M309.747,324.83C309.909,325.071 310.121,325.192 310.234,325.254C310.316,325.299 310.511,325.389 310.771,325.389C310.917,325.389 311.096,325.344 311.242,325.282C311.876,325.011 311.908,324.332 311.908,324.151C311.908,323.88 311.811,323.17 311.112,322.687C310.577,322.31 310.039,322.28 309.389,322.235C309.357,323.004 309.292,324.136 309.747,324.83M313.241,322.19L311.989,322.19C312.201,322.295 312.266,322.34 312.363,322.415C312.769,322.732 313.387,323.457 313.387,324.694C313.387,325.027 313.322,326.43 312.119,327.124C311.924,327.245 311.437,327.487 310.771,327.487C310.072,327.487 309.586,327.214 309.373,327.094C308.139,326.31 307.976,324.694 307.976,323.457C307.976,323.064 307.992,322.671 308.008,322.28C308.008,322.28 307.408,322.295 307.099,322.4C306.627,322.566 306.124,323.004 306.124,324.015C306.124,324.981 306.563,325.796 306.726,326.067C306.807,326.189 306.856,326.264 307.051,326.475L305.133,326.535C304.759,325.525 304.564,324.89 304.564,323.819C304.564,323.624 304.564,323.155 304.694,322.642C305.019,321.314 305.832,320.801 306.417,320.62C306.921,320.454 307.423,320.439 308.448,320.424L310.462,320.424C311.291,320.424 312.119,320.409 312.948,320.379C313.046,320.379 313.143,320.362 313.241,320.362L313.241,322.19" style="fill:rgb(35,31,32);fill-rule:nonzero;"/>
        <path id="path5949" d="M306.741,313.888C306.693,314.07 306.628,314.19 306.628,314.552C306.628,314.885 306.709,315.73 307.668,316.197C308.253,316.485 308.935,316.53 310.268,316.513L313.24,316.513L313.24,318.567L306.936,318.567C306.205,318.582 305.458,318.582 304.728,318.612L304.728,316.68L306.758,316.68C306.384,316.59 306.221,316.53 306.043,316.455C304.824,315.896 304.613,314.915 304.613,314.447C304.613,314.311 304.629,314.16 304.678,313.888L306.741,313.888" style="fill:rgb(35,31,32);fill-rule:nonzero;"/>
        <path id="path5953" d="M313.241,307.381L309.131,307.381C308.188,307.397 307.051,307.366 306.579,308.121C306.498,308.241 306.383,308.482 306.383,308.86C306.383,309.147 306.466,309.796 307.164,310.233C307.782,310.626 308.544,310.656 309.259,310.671L313.241,310.671L313.241,312.738L306.774,312.738C306.091,312.753 305.409,312.768 304.727,312.8L304.727,310.822L306.043,310.807C305.799,310.641 305.442,310.415 305.084,309.856C304.873,309.508 304.597,309.011 304.597,308.091C304.597,307.97 304.613,307.563 304.711,307.185C304.954,306.37 305.604,305.752 306.481,305.525C307.132,305.358 308.219,305.358 308.887,305.343L313.241,305.343L313.241,307.381" style="fill:rgb(35,31,32);fill-rule:nonzero;"/>
        <path id="path5957" d="M308.188,298.529C307.895,298.544 307.684,298.56 307.408,298.649C306.611,298.861 306.108,299.465 306.108,300.234C306.108,300.551 306.189,300.869 306.368,301.125C306.888,301.94 307.96,302.015 308.204,302.045L308.188,298.529ZM309.746,302.045C310.219,301.94 310.446,301.849 310.641,301.728C311.111,301.456 311.729,300.854 311.729,299.645C311.729,298.725 311.373,298.001 311.21,297.699C311.111,297.533 310.999,297.366 310.885,297.185L312.785,297.155C312.965,297.608 313.419,298.649 313.419,299.978C313.419,300.446 313.404,301.834 312.315,302.89C311.779,303.404 310.82,304.038 309.065,304.038C308.643,304.038 307.44,304.008 306.335,303.374C305.669,302.981 304.548,302.06 304.548,300.204C304.548,299.888 304.564,299.013 305.116,298.213C306.075,296.809 307.944,296.673 308.415,296.643C308.854,296.628 309.293,296.643 309.746,296.658L309.746,302.045" style="fill:rgb(35,31,32);fill-rule:nonzero;"/>
        <path id="path5961" d="M306.741,290.576C306.693,290.757 306.628,290.877 306.628,291.239C306.628,291.572 306.709,292.417 307.668,292.884C308.253,293.171 308.935,293.216 310.268,293.201L313.24,293.201L313.24,295.254L306.936,295.254C306.205,295.269 305.458,295.269 304.728,295.299L304.728,293.367L306.758,293.367C306.384,293.277 306.221,293.216 306.043,293.141C304.824,292.583 304.613,291.602 304.613,291.133C304.613,290.998 304.629,290.847 304.678,290.576L306.741,290.576" style="fill:rgb(35,31,32);fill-rule:nonzero;"/>
        <path id="path5965" d="M325.166,339.353L324.377,338.789C323.992,338.488 323.628,338.207 323.244,337.905L318.997,334.523L318.997,331.234L323.952,335.369L325.569,336.703L333.276,330.933L333.276,334.448L328.138,338.169C327.774,338.45 327.411,338.714 327.046,338.958L326.439,339.353L333.276,339.353L333.276,342.003L318.997,342.003L318.997,339.353L325.166,339.353" style="fill:rgb(35,31,32);fill-rule:nonzero;"/>
        <path id="path5969" d="M328.927,327.622C329.129,327.922 329.392,328.073 329.533,328.148C329.636,328.204 329.878,328.317 330.201,328.317C330.383,328.317 330.606,328.26 330.788,328.185C331.577,327.847 331.617,327 331.617,326.775C331.617,326.437 331.496,325.554 330.626,324.952C329.958,324.483 329.291,324.445 328.482,324.388C328.442,325.347 328.361,326.757 328.927,327.622M333.276,324.333L331.718,324.333C331.981,324.464 332.062,324.52 332.183,324.614C332.689,325.008 333.458,325.912 333.458,327.452C333.458,327.865 333.376,329.613 331.879,330.478C331.637,330.629 331.029,330.929 330.201,330.929C329.331,330.929 328.724,330.59 328.462,330.44C326.924,329.463 326.722,327.452 326.722,325.912C326.722,325.422 326.742,324.934 326.763,324.445C326.763,324.445 326.014,324.464 325.631,324.595C325.043,324.802 324.417,325.347 324.417,326.607C324.417,327.809 324.963,328.824 325.166,329.163C325.266,329.313 325.327,329.407 325.569,329.67L323.183,329.745C322.718,328.485 322.474,327.697 322.474,326.362C322.474,326.118 322.474,325.534 322.637,324.895C323.042,323.242 324.053,322.603 324.781,322.378C325.408,322.17 326.034,322.152 327.309,322.133L329.817,322.133C330.848,322.133 331.879,322.114 332.912,322.077C333.033,322.077 333.154,322.058 333.276,322.058L333.276,324.333" style="fill:rgb(35,31,32);fill-rule:nonzero;"/>
        <path id="path5973" d="M333.275,313.132L328.158,313.132C326.985,313.151 325.57,313.113 324.983,314.052C324.882,314.203 324.74,314.503 324.74,314.973C324.74,315.331 324.842,316.138 325.712,316.685C326.479,317.173 327.43,317.21 328.32,317.23L333.275,317.23L333.275,319.803L325.227,319.803C324.377,319.823 323.528,319.841 322.678,319.88L322.678,317.417L324.315,317.398C324.013,317.192 323.568,316.91 323.123,316.213C322.859,315.781 322.515,315.162 322.515,314.015C322.515,313.865 322.537,313.357 322.656,312.887C322.96,311.872 323.769,311.102 324.862,310.82C325.672,310.613 327.025,310.613 327.855,310.595L333.275,310.595L333.275,313.132" style="fill:rgb(35,31,32);fill-rule:nonzero;"/>
        <path id="path5977" d="M322.678,305.155L322.678,302.843L324.74,302.843L324.74,305.155L329.23,305.155C329.675,305.136 331.152,305.173 331.152,303.67C331.152,303.445 331.131,303.218 330.99,302.748L333.154,302.692C333.315,303.312 333.436,303.726 333.436,304.366C333.436,304.61 333.418,305.981 332.527,306.79C331.577,307.653 329.979,307.636 328.765,307.617L324.74,307.617L324.74,309.515L322.678,309.515L322.678,307.617L320.554,307.617L319.704,305.155L322.678,305.155" style="fill:rgb(35,31,32);fill-rule:nonzero;"/>
        <path id="path5981" d="M324.902,298.198C325.307,298.762 326.237,299.421 327.916,299.421C328.199,299.421 330.1,299.401 330.99,298.256C331.293,297.859 331.415,297.447 331.415,296.977C331.415,295.792 330.505,294.589 327.916,294.589C327.107,294.589 326.319,294.683 325.631,295.097C325.266,295.323 324.497,295.867 324.497,296.977C324.497,297.578 324.761,298.011 324.902,298.198M322.921,294.777C323.81,292.842 325.792,291.883 327.997,291.883C328.361,291.883 329.291,291.902 330.261,292.259C331.435,292.692 333.457,293.951 333.457,296.977C333.457,297.578 333.417,299.007 332.265,300.322C331.657,301.017 330.382,302.108 327.977,302.108C327.209,302.108 326.378,301.976 325.671,301.713C323.527,300.923 322.475,299.063 322.475,296.977C322.475,296.638 322.495,295.699 322.921,294.777" style="fill:rgb(35,31,32);fill-rule:nonzero;"/>
        <path id="path5985" d="M333.275,283.549L328.158,283.549C326.985,283.568 325.57,283.53 324.983,284.47C324.882,284.62 324.74,284.92 324.74,285.391C324.74,285.748 324.842,286.556 325.712,287.101C326.479,287.59 327.43,287.626 328.32,287.646L333.275,287.646L333.275,290.221L325.227,290.221C324.377,290.24 323.528,290.258 322.678,290.296L322.678,287.834L324.315,287.815C324.013,287.609 323.568,287.326 323.123,286.631C322.859,286.198 322.515,285.579 322.515,284.433C322.515,284.283 322.537,283.775 322.656,283.305C322.96,282.289 323.769,281.52 324.862,281.238C325.672,281.03 327.025,281.03 327.855,281.011L333.275,281.011L333.275,283.549" style="fill:rgb(35,31,32);fill-rule:nonzero;"/>
        <path id="path5989" d="M328.927,276.493C329.129,276.793 329.392,276.943 329.533,277.019C329.636,277.075 329.878,277.189 330.201,277.189C330.383,277.189 330.606,277.131 330.788,277.056C331.577,276.718 331.617,275.871 331.617,275.646C331.617,275.309 331.496,274.425 330.626,273.824C329.958,273.354 329.291,273.316 328.482,273.26C328.442,274.218 328.361,275.628 328.927,276.493M333.276,273.204L331.718,273.204C331.981,273.335 332.062,273.391 332.183,273.485C332.689,273.88 333.458,274.783 333.458,276.324C333.458,276.736 333.376,278.485 331.879,279.349C331.637,279.499 331.029,279.801 330.201,279.801C329.331,279.801 328.724,279.463 328.462,279.311C326.924,278.335 326.722,276.324 326.722,274.783C326.722,274.294 326.742,273.805 326.763,273.316C326.763,273.316 326.014,273.335 325.631,273.466C325.043,273.674 324.417,274.218 324.417,275.478C324.417,276.68 324.963,277.695 325.166,278.034C325.266,278.184 325.327,278.278 325.569,278.541L323.183,278.616C322.718,277.358 322.474,276.568 322.474,275.234C322.474,274.989 322.474,274.406 322.637,273.768C323.042,272.114 324.053,271.475 324.781,271.249C325.408,271.041 326.034,271.023 327.309,271.004L329.817,271.004C330.848,271.004 331.879,270.986 332.912,270.948C333.033,270.948 333.154,270.93 333.276,270.93L333.276,273.204" style="fill:rgb(35,31,32);fill-rule:nonzero;"/>
        <rect id="path5991" x="317.824" y="266.157" width="15.451" height="2.558" style="fill:rgb(35,31,32);fill-rule:nonzero;"/>
        <path id="path5995" d="M325.104,260.047C325.488,260.612 326.358,261.232 327.997,261.232C329.048,261.232 330.222,260.968 330.868,260.14C331.253,259.653 331.273,259.239 331.273,258.994C331.273,258.788 331.253,258.355 330.929,257.923C330.524,257.378 329.574,256.777 327.917,256.777C327.026,256.777 325.793,257.002 325.186,257.697C324.882,258.037 324.739,258.468 324.721,258.9C324.721,259.088 324.761,259.578 325.104,260.047M317.823,261.25L324.336,261.25C324.073,261.099 323.789,260.949 323.386,260.498C322.778,259.84 322.474,259.088 322.496,258.224C322.496,257.885 322.516,257.19 322.961,256.419C323.527,255.424 324.902,254.145 327.713,254.145C328.442,254.145 329.048,254.239 329.312,254.277C330.464,254.465 331.536,254.822 332.366,255.612C332.831,256.062 333.458,256.833 333.458,258.299C333.458,259.672 332.851,260.442 332.386,260.835C332.163,261.043 331.901,261.193 331.637,261.343L333.276,261.343L333.276,263.768L317.823,263.768L317.823,261.25" style="fill:rgb(35,31,32);fill-rule:nonzero;"/>
        <path id="path5999" d="M328.927,249.682C329.129,249.984 329.392,250.134 329.533,250.209C329.636,250.265 329.878,250.379 330.201,250.379C330.383,250.379 330.606,250.322 330.788,250.247C331.577,249.909 331.617,249.062 331.617,248.837C331.617,248.499 331.496,247.616 330.626,247.014C329.958,246.544 329.291,246.506 328.482,246.45C328.442,247.409 328.361,248.819 328.927,249.682M333.276,246.394L331.718,246.394C331.981,246.526 332.062,246.581 332.183,246.676C332.689,247.071 333.458,247.972 333.458,249.514C333.458,249.927 333.376,251.675 331.879,252.54C331.637,252.69 331.029,252.991 330.201,252.991C329.331,252.991 328.724,252.652 328.462,252.502C326.924,251.525 326.722,249.514 326.722,247.972C326.722,247.484 326.742,246.995 326.763,246.506C326.763,246.506 326.014,246.526 325.631,246.657C325.043,246.864 324.417,247.409 324.417,248.669C324.417,249.871 324.963,250.886 325.166,251.225C325.266,251.375 325.327,251.469 325.569,251.731L323.183,251.806C322.718,250.547 322.474,249.757 322.474,248.424C322.474,248.18 322.474,247.596 322.637,246.957C323.042,245.304 324.053,244.665 324.781,244.44C325.408,244.232 326.034,244.214 327.309,244.195L329.817,244.195C330.848,244.195 331.879,244.176 332.912,244.139C333.033,244.139 333.154,244.119 333.276,244.119L333.276,246.394" style="fill:rgb(35,31,32);fill-rule:nonzero;"/>
        <path id="path6003" d="M333.275,235.194L328.158,235.194C326.985,235.212 325.57,235.175 324.983,236.115C324.882,236.265 324.74,236.565 324.74,237.035C324.74,237.394 324.842,238.2 325.712,238.746C326.479,239.235 327.43,239.272 328.32,239.291L333.275,239.291L333.275,241.866L325.227,241.866C324.377,241.885 323.528,241.902 322.678,241.941L322.678,239.479L324.315,239.46C324.013,239.254 323.568,238.971 323.123,238.276C322.859,237.844 322.515,237.224 322.515,236.077C322.515,235.926 322.537,235.419 322.656,234.95C322.96,233.935 323.769,233.164 324.862,232.882C325.672,232.675 327.025,232.675 327.855,232.656L333.275,232.656L333.275,235.194" style="fill:rgb(35,31,32);fill-rule:nonzero;"/>
        <path id="path6007" d="M326.965,227.95C326.52,227.649 326.075,227.348 325.65,227.048L322.678,224.83L322.678,221.879L327.349,225.544L333.275,221.409L333.275,224.566L330.059,226.746C329.655,226.99 329.27,227.236 328.867,227.461C328.604,227.63 328.3,227.799 328.017,227.95L333.275,227.95L333.275,230.488L317.824,230.488L317.824,227.95L326.965,227.95" style="fill:rgb(35,31,32);fill-rule:nonzero;"/>
    </g>
</svg>
