<svg xmlns="http://www.w3.org/2000/svg" viewBox="0 0 137.132 38.391"><path d="M66.86 28.951a.831.831 0 0 1 .278.63v4.563a.831.831 0 0 1-.278.63.751.751 0 0 1-.631.279H50.743a.95.95 0 0 1-.909-.909V4.08a.936.936 0 0 1 .909-.909h4.562a.95.95 0 0 1 .909.909v24.148a.41.41 0 0 0 .352.445h9.644a.841.841 0 0 1 .65.278Zm20.252-25.39a.725.725 0 0 1 .111.445 1.082 1.082 0 0 1-.111.482l-8.068 20.29v9.384a.947.947 0 0 1-.908.909h-4.563a.947.947 0 0 1-.908-.909v-9.384L64.56 4.47a1.089 1.089 0 0 1-.111-.483.992.992 0 0 1 .111-.445.72.72 0 0 1 .667-.389h5.082a.872.872 0 0 1 .872.668l4.377 12.593a.288.288 0 0 0 .315.241.321.321 0 0 0 .241-.241l4.377-12.575a.843.843 0 0 1 .872-.668h5.044a.84.84 0 0 1 .705.39Zm23.276-.111a.831.831 0 0 1 .278.63v30.064a.95.95 0 0 1-.909.909H104.4a1.327 1.327 0 0 1-.871-.242 1.953 1.953 0 0 1-.353-.519l-6.234-16.005c-.037-.167-.149-.2-.241-.167-.112.037-.167.111-.167.278v15.764a.935.935 0 0 1-.909.909h-4.563a.8.8 0 0 1-.63-.278 1.028 1.028 0 0 1-.278-.668V4.08a.948.948 0 0 1 .908-.909H96.5a1.234 1.234 0 0 1 .8.242 1.758 1.758 0 0 1 .352.556l6.232 17.322c.037.167.148.2.241.167.13-.037.167-.111.167-.278V4.08a.95.95 0 0 1 .909-.909h4.562a.8.8 0 0 1 .625.279Zm26.744 30.861a.936.936 0 0 1-.112.445.839.839 0 0 1-.7.389h-5.379a.942.942 0 0 1-.946-.667l-4.247-10.813a.3.3 0 0 0-.278-.241c-.111 0-.2.074-.278.241l-4.322 10.72a.893.893 0 0 1-.964.668h-5.36a.873.873 0 0 1-.723-.39.725.725 0 0 1-.111-.445 1.3 1.3 0 0 1 .111-.445l6.71-15.173a1.417 1.417 0 0 0 .129-.482 1.635 1.635 0 0 0-.129-.52l-5.917-13.147a.807.807 0 0 1 .037-.909.722.722 0 0 1 .668-.389h5.156a1.011 1.011 0 0 1 .872.668l3.765 9.421a.3.3 0 0 0 .278.241c.111 0 .2-.074.278-.241l3.783-9.4a.9.9 0 0 1 .872-.668h5.156a.873.873 0 0 1 .723.39.887.887 0 0 1 0 .909l-5.916 13.223a1.249 1.249 0 0 0-.111.52 2 2 0 0 0 .111.482L137 33.829a.9.9 0 0 1 .132.482ZM30.045 0H8.346A8.335 8.335 0 0 0 0 8.346v21.7a8.335 8.335 0 0 0 8.346 8.346h21.7a8.335 8.335 0 0 0 8.346-8.346v-21.7A8.335 8.335 0 0 0 30.045 0Zm.278 6.324-4.97 12.3a.925.925 0 0 1-.853.574h-3.283a1.634 1.634 0 0 0-1.539 1.039l-4.859 12.015a.927.927 0 0 1-.854.575H8.587a.546.546 0 0 1-.556-.556.646.646 0 0 1 .037-.2l4.97-12.3a.925.925 0 0 1 .853-.575h3.283a1.679 1.679 0 0 0 1.558-1.038l4.859-12.019a.923.923 0 0 1 .853-.575H29.8a.546.546 0 0 1 .556.556.283.283 0 0 1-.037.2Z" style="fill:#00c878"/></svg>