<svg width="1051" height="125" viewBox="0 0 1051 125" fill="none" xmlns="http://www.w3.org/2000/svg">
<path d="M1050.17 59.75L1049.95 60.21C1049.36 61.4556 1048.45 62.5171 1047.3 63.28C1046.39 63.8908 1045.59 64.6438 1044.92 65.51L1044.6 65.93H1044.08C1042.93 65.881 1041.79 65.7473 1040.66 65.53C1039.67 65.3354 1038.67 65.2449 1037.66 65.26C1036.94 65.2843 1036.24 65.4157 1035.56 65.65C1034.9 65.8185 1034.32 66.2288 1033.95 66.8L1033.57 67.32L1032.94 67.2C1030.18 66.6776 1027.37 66.4297 1024.56 66.46C1021.8 66.46 1019.05 66.35 1016.34 66.25C1014.68 67.2349 1012.82 67.8267 1010.9 67.98C1009.35 68.1134 1007.81 68.3845 1006.31 68.79L1006.18 69.63C1005.99 70.78 1005.8 71.94 1005.62 73.13C1005.36 74.6863 1005.24 76.2624 1005.26 77.84C1005.28 78.9756 1005.42 80.1056 1005.69 81.21C1005.78 81.6627 1005.95 82.0932 1006.21 82.475C1006.47 82.8567 1006.8 83.1817 1007.19 83.43L1007.67 83.73V84.3C1007.62 86.38 1007.67 88.3 1007.73 89.94C1007.77 91.9899 1007.41 94.0281 1006.67 95.94L1006.32 96.89L1004.32 96.11C1004.06 95.9701 1003.76 95.9264 1003.47 95.9869C1003.19 96.0473 1002.93 96.2079 1002.75 96.44L1002.66 96.52C1002.22 96.9208 1001.84 97.3782 1001.53 97.88C1001.04 98.55 1000.53 99.12 1000.1 99.69C999.598 100.376 998.901 100.895 998.1 101.18L997.8 101.27L997.51 101.19C995.756 100.716 994.1 99.9335 992.62 98.88L992.3 98.65L992.21 98.27C992 97.27 991.78 96.38 991.57 95.49V95.3C991.414 94.2872 991.331 93.2646 991.32 92.24C991.315 91.046 991.463 89.8564 991.76 88.7C991.381 87.7256 991.08 86.7224 990.86 85.7V85.57C990.704 84.4432 990.62 83.3075 990.61 82.17C990.602 80.6358 990.692 79.1026 990.88 77.58C991.031 76.0582 991.071 74.5275 991 73C991.004 72.2882 990.964 71.5768 990.88 70.87C990.838 70.4133 990.755 69.9614 990.63 69.52C988.43 69.75 986.21 69.68 983.88 69.84C982.73 69.9206 981.589 70.1012 980.47 70.38C979.292 70.6049 978.149 70.9849 977.07 71.51L976.57 71.76L976.11 71.46C975.44 71.061 974.669 70.8664 973.89 70.9C973.322 70.9123 972.756 70.9792 972.2 71.1C970.542 71.5262 968.792 71.4177 967.2 70.79L966.86 70.65L966.68 70.33C966.59 70.15 966.5 69.97 966.4 69.8C969.196 66.3013 971.288 62.2942 972.56 58L981.76 57.57C982.63 57.49 983.5 57.44 984.37 57.43H986.9C987.76 57.37 988.4 57.29 988.9 57.22C989.142 57.1575 989.354 57.0125 989.5 56.81C989.76 56.3456 990.149 55.9669 990.62 55.72C990.42 54.2 990.26 52.53 990.11 50.64L989.63 44.29C989.46 42.13 989.23 40.02 988.94 38.02C988.687 36.2209 988.221 34.4584 987.55 32.77L987.45 32.49L987.51 32.21C987.639 31.3845 987.861 30.5761 988.17 29.8C988.507 29.0927 988.768 28.3519 988.95 27.59L989.11 26.93L989.79 26.83C990.216 26.774 990.627 26.6346 991 26.42C991.703 26.0374 992.49 25.8347 993.29 25.83C994.019 25.8866 994.729 26.0871 995.38 26.42C996.271 26.7051 997.141 27.056 997.98 27.47C998.888 27.8759 999.766 28.3436 1000.61 28.87C1000.96 29.0523 1001.29 29.2561 1001.61 29.48C1001.9 29.6656 1002.15 29.8951 1002.37 30.16L1002.57 30.43V31.29C1002.58 32.3511 1002.68 33.4093 1002.89 34.45C1003.18 35.45 1003.51 36.45 1003.89 37.39L1004.13 37.95L1004.51 38.88C1004.6 39.1221 1004.67 39.3692 1004.72 39.62C1004.81 40.0706 1004.86 40.5297 1004.86 40.99V41.99C1004.88 43.4586 1004.78 44.9264 1004.57 46.38C1004.46 47.67 1004.41 48.99 1004.42 50.26C1004.42 50.98 1004.47 51.92 1004.55 53.04C1004.6 53.7682 1004.78 54.4822 1005.07 55.15L1005.17 55.34C1005.19 55.4147 1005.23 55.4834 1005.28 55.54C1005.62 55.6029 1005.93 55.7708 1006.17 56.02V56.02C1008.23 55.54 1010.34 55.3216 1012.46 55.37C1014.82 55.37 1017.09 55.37 1019.23 55.2L1020.87 54.97C1021.4 54.9024 1021.92 54.7988 1022.44 54.66C1022.81 54.5825 1023.17 54.479 1023.53 54.35C1024.04 54.1872 1024.57 54.0963 1025.11 54.08C1027.1 54.054 1029.09 54.2485 1031.04 54.66C1032.93 54.9849 1034.85 55.1355 1036.77 55.11C1038.49 55.1078 1040.2 54.8241 1041.83 54.27L1042.2 54.13L1046.4 56.06C1047.91 56.669 1049.17 57.7816 1049.96 59.21L1050.17 59.75Z" fill="#80FF04"></path>
<path d="M948.88 73.06C959.88 68.41 966.24 59.16 966.24 46.16C966.24 26.66 952.58 16.16 930.61 16.16H891.21V109.51H912.93V76.33H926.85L947.13 109.49H972L948.88 73.06ZM912.88 58.64V34.46H929.39C939.66 34.46 944.86 38.88 944.86 46.55C944.86 54.22 939.66 58.64 929.39 58.64H912.88Z" fill="black"></path>
<path d="M815 16.13V109.49H881V90.89H836.36V71H872.54V52.67H836.36V34.67H881V16.13H815Z" fill="black"></path>
<path d="M747.43 16.13H725.71V109.49H747.43V84.26L757.83 72.17L782.93 109.49H808.15L772.26 55.4L805.94 16.13H780.72L747.43 56.57V16.13Z" fill="black"></path>
<path d="M627.58 62.81C627.58 91.02 646.18 110.92 672.31 110.92C698.44 110.92 717 91 717 62.81C717 34.62 698.58 14.7 672.31 14.7C646.04 14.7 627.58 34.59 627.58 62.81ZM695.33 62.81C695.33 80.75 685.84 92.06 672.33 92.06C658.82 92.06 649.45 80.75 649.45 62.81C649.45 44.87 658.81 33.55 672.33 33.55C685.85 33.55 695.33 44.86 695.33 62.81Z" fill="black"></path>
<path d="M603.72 73.06C614.72 68.41 621.08 59.16 621.08 46.16C621.08 26.66 607.42 16.16 585.45 16.16H546.05V109.51H567.77V76.33H581.69L602 109.48H626.84L603.72 73.06ZM567.72 58.64V34.46H584.23C594.5 34.46 599.7 38.88 599.7 46.55C599.7 54.22 594.5 58.64 584.23 58.64H567.72Z" fill="black"></path>
<path d="M463.19 109.49H505.71C525.71 109.49 537.43 99.73 537.43 83.22C537.43 72.04 530.93 64.22 522.09 60.99C528.2 58.39 534.7 51.99 534.7 41.22C534.7 24.97 523.78 16.13 503.37 16.13H463.19V109.49ZM484 53.58V33.94H501.17C509.62 33.94 514.3 37.19 514.3 43.69C514.3 50.19 509.62 53.58 501.17 53.58H484ZM484 70.48H503.77C512.09 70.48 516.64 74.77 516.64 81.01C516.64 87.25 512.09 91.54 503.77 91.54H484V70.48Z" fill="black"></path>
<path d="M454.34 34.72V16.13H375.54V34.72H404.15V109.49H425.86V34.72H454.34Z" fill="black"></path>
<path d="M353.31 73.06C364.31 68.41 370.67 59.16 370.67 46.16C370.67 26.66 357.01 16.16 335.04 16.16H295.64V109.51H317.36V76.33H331.28L351.56 109.49H376.4L353.31 73.06ZM317.36 58.64V34.46H333.87C344.14 34.46 349.34 38.88 349.34 46.55C349.34 54.22 344.14 58.64 333.87 58.64H317.36Z" fill="black"></path>
<path d="M229.78 16.13L195.32 109.49H216.77L223.53 90.76H260.2L267 109.49H289L254.61 16.13H229.78ZM241.78 40.18L253.61 72.82H230L241.78 40.18Z" fill="black"></path>
<path d="M147.23 107.49L167.77 44.86V109.49H188.44V16.13H158.67L139.67 77.37L120.67 16.13H90.41V109.49H111.08V44.86L131.62 107.49H147.23Z" fill="black"></path>
<path d="M0.22998 93.85C8.05998 104.73 25.31 111.49 41.1 111.49C62.19 111.49 79.58 99.95 79.58 80.05C79.58 59.05 61 55.23 46.01 52.05C33.8 49.39 27.3 48.05 27.3 41.43C27.3 35.33 33.14 31.61 41.5 31.61C51.58 31.61 59.41 36.39 65.25 43.82L78.65 29.23C71.65 20.34 58.65 13.3 42.16 13.3C21.86 13.3 5.66998 25 5.66998 43.69C5.66998 62.8 21.06 67.44 35.13 70.49C49.59 73.68 57.68 74.74 57.68 82.3C57.68 89.47 51.18 93.18 42.03 93.18C31.81 93.18 21.33 88.18 13.9 78.59L0.22998 93.85Z" fill="black"></path>
</svg>