<?xml version="1.0" encoding="UTF-8"?>
<svg id="Ebene_1" xmlns="http://www.w3.org/2000/svg" viewBox="0 0 98.14 60.49">
  <defs>
    <style>
      .cls-1 {
        fill: #ffed00;
      }

      .cls-1, .cls-2, .cls-3, .cls-4, .cls-5, .cls-6 {
        stroke: #1d1d1b;
        stroke-miterlimit: 10;
      }

      .cls-2 {
        fill: #36a9e1;
      }

      .cls-3 {
        fill: #fff;
      }

      .cls-4 {
        fill: #008d36;
      }

      .cls-5 {
        fill: #009fe3;
      }

      .cls-6 {
        fill: #e6332a;
      }
    </style>
  </defs>
  <path class="cls-4" d="M22.18,45.72c3.24-12.15,6.47-24.3,9.71-36.46-2.26,4.27-4.53,8.54-6.79,12.82-1.42,4.89-2.85,9.78-4.27,14.67-.79-1.09-1.58-2.18-2.36-3.28-.74,1.2-1.49,2.4-2.23,3.6,1.98,2.88,3.96,5.76,5.94,8.65Z"/>
  <path class="cls-6" d="M58.81,32.12c.64.17,3.25.94,4.63,3.15.31.5,1.9,3.22-.05,5.66-1.57,1.96-4.8,2.96-7.98,2.4"/>
  <path class="cls-1" d="M50.55,58.82c4.2-14.09,8.35-28.29,12.44-42.6,1.18-4.11,2.34-8.21,3.5-12.3-.86-.03-3.67,0-5.84,1.98-2.71,2.48-3.34,7.03-1.28,11.08-2.98,10.21-5.97,20.42-8.95,30.63-1.08-2.64-2.16-5.28-3.25-7.92-.67,1.25-1.34,2.51-2.01,3.76,1.8,5.12,3.6,10.25,5.4,15.37Z"/>
  <path class="cls-3" d="M97.69,8.81c-14.79,33.91-24.03,50.49-27.72,49.76-1.03-.2-1.62-1.76-1.79-4.66"/>
  <circle class="cls-5" cx="62.59" cy="53.57" r="5.59"/>
  <path class="cls-2" d="M66.46,3.58c-10,18.71-19.99,37.42-29.99,56.13h-4.77c-.06-16.59-.12-33.17-.18-49.76C22.76,26.55,14,43.13,5.23,59.72c-1.57.02-3.14.04-4.71.06,0-19.76-.01-39.52-.02-59.27h24.02v4.7H5.27v16.46h10.4v4.69H5.27v23.54C14.08,33.52,22.89,17.16,31.7.79h4.77v49.13L62.24,1.34l4.22,2.24Z"/>
  <circle class="cls-1" cx="24.25" cy="54.33" r="4.77"/>
  <path class="cls-3" d="M18.52,59.66c-.64.17-3.27.81-5.5-.36-.51-.27-3.15-1.76-2.59-4.77.45-2.42,2.8-4.84,5.83-5.94"/>
</svg>