<?xml version="1.0" encoding="UTF-8"?>
<svg xmlns="http://www.w3.org/2000/svg" version="1.1" viewBox="0 0 458.9 459.5">
  <defs>
    <style>
      .cls-1 {
        fill: #e0f0fe;
      }

      .cls-1, .cls-2 {
        stroke: #1d1d1b;
        stroke-miterlimit: 10;
      }

      .cls-2 {
        fill: #fff;
      }
    </style>
  </defs>
  <!-- Generator: Adobe Illustrator 28.7.1, SVG Export Plug-In . SVG Version: 1.2.0 Build 142)  -->
  <g>
    <g id="Ebene_1">
      <g id="Ebene_1-2" data-name="Ebene_1">
        <path class="cls-1" d="M21.9,437.4c30.5-4.4,76.7-15.9,103.7-52.5,4.4-6,8.1-12.3,11-18.9"/>
        <path class="cls-1" d="M143.4,346.1c3.7-15.3,4.6-31.5,3.7-48.2-.3-5.7-.8-11.5-1.5-17.3-1.4-11.9-3.6-24-6.2-36-2.6-12-5.6-24-8.8-35.8-2.8-10.5-5.6-20.9-8.3-30.9-1.6-5.9-3.1-11.7-4.5-17.3-1.6-6.3-3-12.4-4.3-18.3-7.1-33.4-8.1-60.4,8.9-74.7,10.2-8.6,23.6-9.6,39.4-6.9,5.5.9,11.2,2.3,17.3,4.1,28.9,8.1,64.1,23,102.7,27.4,5.7.7,11.5,1.1,17.3,1.2,8.2.2,16.6-.2,25-1.2"/>
        <path class="cls-1" d="M93.4,135.5c1.1,8.5,1.4,16.9,1.2,25.1,0,5.8-.6,11.6-1.2,17.3-4.4,38.6-19.3,73.7-27.4,102.7-1.7,6-3.1,11.8-4.1,17.3,26.4-32.1,52.7-64.1,79.1-96.2"/>
        <path class="cls-1" d="M143.4,346.1c4.1-.9,10.5-2.3,18.3-4.3,8.6-2.1,15-3.9,17.3-4.5,32.5-8.7,68.2-19.2,102.7-23.3,5.8-.7,11.6-1.2,17.3-1.5,16.7-.9,33,0,48.3,3.7,6.9,1.7,13.6,3.9,20,6.8-8.3-12.7-30.3-42.2-68.4-52.7-54-14.9-118.5,14.8-155.5,75.8h0Z"/>
        <path class="cls-1" d="M93.4,135.5c-6.5-2.9-12.8-6.6-18.7-10.9C38,97.6,26.5,51.4,22.2,20.9c18.6,13.9,45.6,38.3,61,75.7,5.4,13.1,8.7,26.1,10.3,38.9h0Z"/>
        <path class="cls-1" d="M438.5,437.6c-18.6-13.9-45.6-38.3-61-75.7-5.4-13.1-8.7-26.1-10.3-38.9,6.5,2.9,12.8,6.6,18.7,11,36.6,27,48.2,73.1,52.5,103.7h0Z"/>
        <path class="cls-1" d="M93.4,135.5c6.4,2.9,13.2,5.2,20.1,6.9,15.3,3.7,31.5,4.6,48.2,3.7,5.7-.3,11.5-.8,17.3-1.5,34.5-4.2,70.2-14.6,102.7-23.3,5.9-1.6,11.7-3.1,17.3-4.5,6.2-1.6,12.3-3,18.2-4.3,33.4-7.1,60.5-8.1,74.7,8.9,8.6,10.2,9.6,23.6,6.9,39.4-1,5.5-2.4,11.2-4,17.3-8.1,28.9-23,64.1-27.4,102.7-.7,5.7-1.1,11.5-1.2,17.3-.2,8.2.1,16.6,1.2,25.1"/>
        <path class="cls-1" d="M324,92.3c-3.5,8.1-5.5,15-6.8,20-5,19.7-4.3,36.3-3.7,48.2.3,5.7.8,11.5,1.5,17.3,1.4,11.5,3.5,23.1,6,34.7,2.7,12.6,5.9,25.2,9.1,37.5,2.8,10.4,5.6,20.5,8.2,30.4,1.6,5.9,3.1,11.7,4.5,17.3,1.6,6.3,3,12.4,4.3,18.3,7.1,33.3,8,60.3-8.9,74.5-10.2,8.6-23.6,9.6-39.4,6.9-5.5-1-11.2-2.4-17.3-4-28.9-8.1-64.1-23-102.7-27.4-5.7-.7-11.5-1.1-17.3-1.2-8.2-.2-16.6.1-25,1.2,81.3-154.1,123-189.2,146-186.4,1.9.2,15.8,2,18-2.9,4.3-9.7-40.8-35.4-35.3-48.9,1.5-3.7,5.1-2.6,15-12.7,2.8-2.8,4.9-5.4,9.1-8.2,5.5-3.7,8.5-3.8,8.5-4.7.5-6.1-129.4-23.6-129.9-20.6-.2,1.3,21.8,5.7,35.9,8,8.1,1.3,23,3.4,46.2,4.4,18.8.8,43.8.9,73.7-1.6h.3Z"/>
        <path class="cls-1" d="M438.7,20.9v.2c-13.9,18.6-38.3,45.6-75.7,61-13.2,5.4-26.2,8.7-39,10.3,3-6.6,6.6-12.9,11-18.9,27-36.7,73.1-48.2,103.7-52.5h0Z"/>
        <path class="cls-1" d="M136.6,366c-.4.8-.8,1.6-1.1,2.5-2.7,5.6-6,11.1-9.8,16.3-27,36.6-73.2,48.2-103.7,52.5,1.3-1.8,2.7-3.6,4.2-5.5,1-1.2,2-2.5,3.1-3.8,1.6-2,3.3-3.9,5.1-6h0c1.8-2,3.7-4.1,5.7-6.1.7-.7,1.3-1.4,2-2.1,4.8-4.8,10.2-9.7,16.2-14.4.6-.5,1.3-1,1.9-1.5,8.5-6.5,18.1-12.6,28.9-17.8,1.7-.8,3.3-1.6,5.1-2.3,1.2-.5,2.3-1,3.5-1.5.9-.4,1.8-.7,2.7-1.1h0c3.4-1.3,6.8-2.5,10.3-3.6,3-.9,6-1.8,9-2.5,5.7-1.4,11.3-2.4,16.9-3.1h0Z"/>
        <path class="cls-1" d="M347.2,316.1c-20.4-4.1-36.9-4.3-48.2-3.7-7.2.4-13.8,1.1-17.3,1.5-11.9,1.5-24,3.6-36,6.2s-24,5.6-35.8,8.8c-10.5,2.8-20.9,5.6-30.9,8.3-5.9,1.6-11.7,3.1-17.3,4.5-6.3,1.6-12.4,3-18.3,4.3-33.4,7.1-60.4,8.1-74.7-8.9-8.6-10.2-9.6-23.6-6.9-39.4.9-5.5,2.3-11.2,4.1-17.3,8.1-28.9,23-64.1,27.4-102.7.7-5.7,1.1-11.5,1.2-17.3.2-8.2-.2-16.6-1.2-25,2.5,1.2,6.6,3.1,11.9,4.9,1.5.5,15.3,5.1,31.8,5.6,30.5.9,97-11.4,122.2-7.1,28.8,5,62.6,42,87.8,177.1l.2.2Z"/>
        <polygon class="cls-2" points="438.7 160.6 438.7 297.9 298.9 297.9 298.9 437.6 161.7 437.6 161.7 297.9 21.9 297.9 21.9 160.6 161.7 160.6 161.7 20.9 298.9 20.9 298.9 160.6 438.7 160.6"/>
      </g>
    </g>
  </g>
</svg>