<?xml version="1.0" encoding="UTF-8"?>
<svg id="a" data-name="Ebene_1" xmlns="http://www.w3.org/2000/svg" viewBox="0 0 100 100">
  <defs>
    <style>
      .b {
        fill: #ffed00;
      }

      .b, .c, .d, .e, .f, .g {
        stroke: #1d1d1b;
        stroke-miterlimit: 10;
      }

      .c {
        fill: #36a9e1;
      }

      .d {
        fill: #fff;
      }

      .e {
        fill: #008d36;
      }

      .f {
        fill: #009fe3;
      }

      .g {
        fill: #e6332a;
      }
    </style>
  </defs>
  <path class="e" d="M22.18,85.52c3.24-12.15,6.47-24.3,9.71-36.46-2.26,4.27-4.53,8.54-6.79,12.82-1.42,4.89-2.85,9.78-4.27,14.67-.79-1.09-1.58-2.18-2.36-3.28-.74,1.2-1.49,2.4-2.23,3.6,1.98,2.88,3.96,5.76,5.94,8.65Z"/>
  <path class="g" d="M58.81,71.92c.64.17,3.25.94,4.63,3.15.31.5,1.9,3.22-.05,5.66-1.57,1.96-4.8,2.96-7.98,2.4"/>
  <path class="b" d="M50.55,98.61c4.2-14.09,8.35-28.29,12.44-42.6,1.18-4.11,2.34-8.21,3.5-12.3-.86-.03-3.67,0-5.84,1.98-2.71,2.48-3.34,7.03-1.28,11.08-2.98,10.21-5.97,20.42-8.95,30.63-1.08-2.64-2.16-5.28-3.25-7.92-.67,1.25-1.34,2.51-2.01,3.76,1.8,5.12,3.6,10.25,5.4,15.37Z"/>
  <path class="d" d="M97.69,48.6c-14.79,33.91-24.03,50.49-27.72,49.76-1.03-.2-1.62-1.76-1.79-4.66"/>
  <circle class="f" cx="62.59" cy="93.36" r="5.59"/>
  <path class="c" d="M66.46,43.38c-10,18.71-19.99,37.42-29.99,56.13h-4.77c-.06-16.59-.12-33.17-.18-49.76-8.76,16.59-17.53,33.17-26.29,49.76-1.57.02-3.14.04-4.71.06,0-19.76-.01-39.52-.02-59.27h24.02v4.7H5.27v16.46h10.4v4.69H5.27v23.54c8.81-16.36,17.62-32.73,26.43-49.09h4.77v49.13l25.77-48.57,4.22,2.24Z"/>
  <circle class="b" cx="24.25" cy="94.12" r="4.77"/>
  <path class="d" d="M18.52,99.45c-.64.17-3.27.81-5.5-.36-.51-.27-3.15-1.76-2.59-4.77.45-2.42,2.8-4.84,5.83-5.94"/>
</svg>