<?xml version="1.0" encoding="UTF-8"?>
<svg preserveAspectRatio="xMidYMid slice" xmlns="http://www.w3.org/2000/svg" width="143px" height="40px" viewBox="0 0 86 24" fill="none">
  <g id="Group 35">
    <path id="Vector" d="M42.8812 11.4776V11.4211C44.8894 10.8169 46.2645 9.3585 46.2645 7.15756C46.2645 3.60839 43.239 2.26086 40.2955 2.26086H32.7066V21.7376H39.7209C43.407 21.7376 47.0932 20.4154 47.0932 16.1794C47.0932 13.6806 45.3355 11.7536 42.8861 11.4783L42.8812 11.4776ZM36.1703 5.2305H39.0306C41.6423 5.2305 42.8 6.05639 42.8 7.73286C42.8 9.19192 41.6423 10.1823 39.327 10.1823H36.1647V5.23262L36.1703 5.2305ZM39.3609 18.7658H36.1703V13.1526H39.4993C42.3037 13.1526 43.6245 13.8677 43.6245 15.9034C43.6245 18.4623 41.1489 18.7658 39.3609 18.7658ZM58.8405 19.0962C54.824 19.0962 52.1557 16.015 52.1557 11.8609C52.1557 7.98415 54.824 4.90297 58.8405 4.90297C60.1887 4.90297 61.5087 5.31521 62.9395 6.82792L65.636 4.84862C63.7089 2.61803 61.4536 1.76392 58.8122 1.76392C52.8165 1.76392 48.524 5.83686 48.524 12.0769C48.524 18.1545 52.8157 22.2274 58.8122 22.2274C61.6739 22.2274 64.3139 21.1827 66.0757 18.7616L63.2148 16.7293C61.9195 18.3797 60.4075 19.094 58.8383 19.094L58.8405 19.0962ZM81.704 2.26086L76.2292 16.9785L70.9209 2.26086H66.9313L74.5795 21.7383H77.5774L85.4452 2.26156" fill="#636362"></path>
    <g id="Group">
      <path id="Vector_2" d="M24.1336 0H1.58633C1.17974 0 0.850098 0.328941 0.850098 0.735529V23.2631C0.850098 23.6696 1.17974 24 1.58633 24H24.1336C24.5409 24 24.8692 23.6696 24.8692 23.2631V0.735529C24.8692 0.328941 24.5409 0 24.1336 0ZM23.943 22.6108C23.943 22.8826 23.7228 23.1021 23.4517 23.1021H2.23363C1.96186 23.1021 1.74304 22.8833 1.74304 22.6108V1.39765C1.74304 1.12518 1.96186 0.906353 2.23292 0.906353H23.4517C23.72 0.906353 23.9388 1.12518 23.9388 1.39694V22.6087L23.943 22.6108Z" fill="#009D4D"></path>
      <path id="Vector_3" d="M22.3598 2.61454C22.5645 2.26866 22.3358 2.10913 22.0873 2.10913H12.7583C11.5901 2.10913 11.5866 2.10631 11.1405 2.84184C10.6958 3.57737 6.22752 10.8091 5.89293 11.3576C5.48352 12.0261 5.48916 12.0282 5.89293 12.6875C6.29528 13.3496 10.695 20.5002 11.1405 21.2357C11.5852 21.9698 11.5901 21.9677 12.7583 21.9677L22.0873 21.9748C22.3358 21.9748 22.5652 21.8124 22.3598 21.4665C22.2327 21.2534 17.3678 13.363 16.9612 12.6924C16.5532 12.0218 16.5602 11.9908 16.9866 11.3188C17.4129 10.6454 22.1776 2.92795 22.3598 2.62019V2.61454Z" fill="#009D4D"></path>
    </g>
  </g>
</svg>
