<svg width="308" height="27" xmlns="http://www.w3.org/2000/svg">
    <g fill="none" fill-rule="evenodd">
        <path d="M177 8.092c0 1.153-.607 1.73-1.822 1.73h-7.708V25.25c0 1.167-.6 1.75-1.8 1.75-1.185 0-1.877-.052-2.076-.153-.663-.238-.993-.768-.993-1.597V9.821c-.647 0-1.174-.011-1.582-.034a8.228 8.228 0 0 1-.865-.076c-.768-.25-1.154-.864-1.154-1.84 0-.974.386-1.588 1.154-1.842.168-.028.457-.055.865-.075.408-.023.935-.035 1.582-.035V1.731c0-1.153.6-1.731 1.8-1.731 1.185 0 1.877.053 2.076.158.662.22.993.745.993 1.573V5.92h7.708c1.215 0 1.822.725 1.822 2.173M193 8.19c0 1.154-.704 1.73-2.113 1.73-.194 0-.475-.011-.842-.033-.369-.022-.647-.033-.842-.033-3.642 0-5.461.883-5.461 2.653V25.27c0 .848-.33 1.38-.99 1.599-.27.087-.957.131-2.068.131-1.123 0-1.684-.582-1.684-1.752v-12.74c0-2.75 1.446-4.61 4.339-5.588 1.766-.613 4.393-.92 7.887-.92 1.182 0 1.774.732 1.774 2.19M308 8.19c0 1.154-.704 1.73-2.113 1.73-.194 0-.475-.011-.842-.033-.369-.022-.647-.033-.842-.033-3.642 0-5.461.883-5.461 2.653V25.27c0 .848-.33 1.38-.99 1.599-.27.087-.957.131-2.068.131-1.123 0-1.684-.582-1.684-1.752v-12.74c0-2.75 1.446-4.61 4.339-5.588 1.766-.613 4.393-.92 7.887-.92 1.182 0 1.774.732 1.774 2.19M255 20.344V10h-14.527c-4.317 0-6.473.905-6.473 2.72v7.404c0 1.353.817 2.222 2.445 2.614.703.175 2.086.262 4.142.262h6.956c4.972 0 7.457-.884 7.457-2.656zm5 .112c0 2.278-1.466 4.01-4.4 5.19-2.073.905-4.567 1.354-7.486 1.354h-7.416c-7.505 0-11.383-2.004-11.628-6.013a44.38 44.38 0 0 1-.07-2.794c0-2.324.046-4.215.138-5.68.275-4.408 4.106-6.61 11.491-6.61h14.512v-4.15c0-1.169.598-1.753 1.796-1.753.86 0 1.55.058 2.073.175.66.224.99.747.99 1.579v18.702zM292 16.863c0 1.268-.445 1.9-1.335 1.9h-23.732v.154c0 1.983 1.205 3.256 3.619 3.825.528.117 1.293.208 2.296.272 1.003.067 14.47.117 16.024.117 1.176 0 1.765.713 1.765 2.14 0 1.153-.589 1.729-1.765 1.729-1.599 0-15.096-.028-16.114-.051-1.018-.02-1.792-.062-2.32-.119-2.623-.263-4.555-.861-5.791-1.793C262.882 23.71 262 22.152 262 20.36v-7.716c0-2.418 1.358-4.21 4.072-5.376C267.93 6.422 270.386 6 273.447 6h8.915c2.503 0 4.577.401 6.222 1.201C290.86 8.221 292 9.759 292 11.813v5.05zM288 15v-2.61c0-1.593-3.303-2.39-9.91-2.39-3.897 0-6.57.133-8.017.399-2.048.368-3.073 1.09-3.073 2.168V15h21zM198.142 6.012h19.291c6.141 0 9.567 3.026 9.567 7.566v7.096c0 4.222-3.331 6.325-9.882 6.325h-11.809a15.265 15.265 0 0 1-6.567-1.392c-2.479-1.12-3.742-2.694-3.742-4.721v-1.513c-.025-2.216 1.412-4.205 3.584-4.963a15.554 15.554 0 0 1 6.567-1.301h17.05v-.094l-.002-.186c-.033-1.63-.49-2.959-6.408-2.959h-17.65a1.62 1.62 0 0 1-1.34-.444 1.473 1.473 0 0 1-.427-1.296v-.454c-.052-.46.118-.918.463-1.242.345-.325.826-.48 1.305-.422zm3.823 11.25c-1.405.454-1.894 1.074-1.894 1.937v1.513c0 .771.584 1.588 2.036 2.042 1.088.227 2.205.299 3.315.212h11.998a7.38 7.38 0 0 0 4.215-.817c.66-.81.95-1.841.805-2.86l.048.016v-2.391H205.28a10.603 10.603 0 0 0-3.315.348zM31 25.272C31 26.425 30.262 27 28.787 27H11.153c-3.386 0-5.824-.312-7.314-.94C1.279 25.066 0 23.263 0 20.65v-8.276C0 8.125 3.388 6 10.16 6h18.876c1.234 0 1.851.651 1.851 1.95 0 1.3-.617 1.949-1.85 1.949H10.497c-3.824 0-5.734.782-5.734 2.342v8.212c0 1.782 2.176 2.672 6.526 2.672h17.926c1.19 0 1.784.716 1.784 2.147M62 20.475c0 2.393-1.197 4.145-3.591 5.255-1.7.847-3.961 1.27-6.785 1.27H43.84c-2.57 0-4.9-.43-6.984-1.292C34.285 24.568 33 22.825 33 20.475v-7.73c0-2.351 1.278-4.132 3.835-5.343C38.712 6.468 41.04 6 43.818 6h7.806C58.542 6 62 8.234 62 12.7v7.775zm-4.745 0v-8.08c0-1.665-1.92-2.497-5.764-2.497h-7.606c-1.419 0-2.69.175-3.812.525-1.597.512-2.395 1.285-2.395 2.322v7.73c0 .992.813 1.723 2.439 2.189 1.078.306 2.342.46 3.79.46h7.606a11.37 11.37 0 0 0 3.481-.526c1.508-.482 2.261-1.19 2.261-2.123zM78 8.19c0 1.152-.704 1.729-2.112 1.729-.196 0-.476-.01-.843-.033a16.183 16.183 0 0 0-.843-.032c-3.64 0-5.461.884-5.461 2.649v12.769c0 .845-.329 1.378-.99 1.598-.267.087-.957.13-2.065.13C64.561 27 64 26.417 64 25.249V12.503c0-2.745 1.446-4.606 4.337-5.584C70.105 6.306 72.733 6 76.225 6 77.408 6 78 6.73 78 8.19M109 25.272c0 1.153-.584 1.728-1.751 1.728-1.153 0-1.826-.05-2.018-.152-.637-.219-.953-.745-.953-1.576V11.914c0-.95-.799-1.57-2.396-1.862-.28-.058-.712-.099-1.297-.12A60.175 60.175 0 0 0 98.38 9.9h-8.07c-.812 0-1.497.014-2.05.043-.555.03-.996.074-1.32.131-1.507.293-2.262.913-2.262 1.862v13.337c0 1.153-.575 1.728-1.729 1.728-1.152 0-1.826-.05-2.018-.152-.62-.219-.93-.745-.93-1.576V11.98C80 7.994 83.575 6 90.73 6h7.65C105.46 6 109 7.98 109 11.935v13.337zM141 16.863c0 1.268-.445 1.9-1.335 1.9h-23.732v.154c0 1.983 1.205 3.256 3.619 3.825.528.117 1.293.208 2.296.272 1.003.067 14.47.117 16.024.117 1.176 0 1.765.713 1.765 2.14 0 1.153-.589 1.729-1.765 1.729-1.599 0-15.096-.028-16.114-.051-1.018-.02-1.792-.062-2.32-.119-2.623-.263-4.555-.861-5.791-1.793C111.882 23.71 111 22.152 111 20.36v-7.716c0-2.418 1.358-4.21 4.072-5.376C116.93 6.422 119.386 6 122.447 6h8.915c2.503 0 4.577.401 6.222 1.201C139.86 8.221 141 9.759 141 11.813v5.05zM137 15v-2.61c0-1.593-3.303-2.39-9.91-2.39-3.897 0-6.57.133-8.017.399-2.048.368-3.073 1.09-3.073 2.168V15h21zM157 8.19c0 1.152-.704 1.729-2.112 1.729-.195 0-.475-.01-.844-.033a16.067 16.067 0 0 0-.842-.032c-3.64 0-5.46.884-5.46 2.649v12.769c0 .845-.33 1.378-.99 1.598-.268.087-.957.13-2.066.13-1.124 0-1.686-.583-1.686-1.751V12.503c0-2.745 1.446-4.606 4.338-5.584 1.767-.613 4.396-.919 7.887-.919 1.183 0 1.775.73 1.775 2.19" fill="#075DA7"/>
        <path d="M138.618 4H113.38c-1.314 0-2.38-.895-2.38-2 0-1.103 1.066-2 2.38-2h25.238C139.934 0 141 .897 141 2c0 1.105-1.066 2-2.382 2" fill="#E40613"/>
    </g>
</svg>
