<svg xmlns="http://www.w3.org/2000/svg" version="1.1" viewBox="24.71 24.68 115.57 24.67" class="navbar__logo svg"><path d="M24.707 25.078h5.156v23.906h-5.156zm8.856 0h5.164v3.16c1.836-2.39 4.304-3.562 7.402-3.562 2.734 0 5.07.902 7 2.656 1.973 1.762 2.96 4.063 2.96 6.996v14.656h-5.16V35.727c0-3.836-2.558-6.227-5.788-6.227-1.883 0-3.41.676-4.621 2.074-1.211 1.352-1.793 3.067-1.793 5.098v12.312h-5.164zm28.191 20.613c-2.379-2.433-3.547-5.32-3.547-8.703 0-3.383 1.168-6.316 3.547-8.707 2.379-2.39 5.293-3.605 8.66-3.605 3.363 0 6.238 1.215 8.613 3.652 2.38 2.39 3.594 5.277 3.594 8.66s-1.215 6.317-3.594 8.75c-2.375 2.39-5.25 3.61-8.613 3.61-3.367 0-6.281-1.22-8.66-3.657zm8.66-1.125c2.063 0 3.813-.722 5.25-2.21 1.438-1.489 2.152-3.294 2.152-5.368 0-2.078-.714-3.832-2.152-5.324-1.437-1.484-3.187-2.254-5.25-2.254-2.062 0-3.816.766-5.25 2.254-1.437 1.492-2.152 3.25-2.152 5.324 0 2.075.715 3.88 2.152 5.367 1.434 1.489 3.188 2.211 5.25 2.211zM81.95 25.078h5.519l6.55 20.93 6.551-20.93h5.52l-7.81 23.906H89.8zm26.206 0h5.16v23.906h-5.16zm10.903 20.613c-2.29-2.433-3.454-5.32-3.454-8.703 0-3.43 1.165-6.316 3.454-8.707 2.332-2.39 5.113-3.605 8.39-3.605 3.23 0 5.79 1.215 7.672 3.605v-3.203h5.16v23.906h-5.16v-3.203c-1.93 2.395-4.484 3.567-7.672 3.567-3.277 0-6.058-1.22-8.39-3.657zm14.18-3.336c1.48-1.488 2.198-3.292 2.198-5.367 0-2.078-.718-3.879-2.199-5.367-1.48-1.488-3.23-2.258-5.297-2.258-2.109 0-3.859.77-5.336 2.258-1.437 1.488-2.156 3.293-2.156 5.367 0 2.117.719 3.926 2.156 5.41 1.434 1.493 3.227 2.211 5.336 2.211 2.067 0 3.817-.765 5.297-2.254zm0 0" id="surface1" stroke="none" fill-rule="nonzero" fill="#000" fill-opacity="1"></path></svg>