<svg itemprop="logo" width="124" height="18" viewBox="0 0 124 18" fill="none" xmlns="http://www.w3.org/2000/svg">
                <title>Logo Migros Bank</title>
                <path d="M123.209 12.4668H119.452L115.439 6.87991V12.4668H112.267V0.69775C112.273 0.630035 112.293 0.564202 112.324 0.504052C112.356 0.443901 112.399 0.390625 112.452 0.347299C112.504 0.303974 112.565 0.271458 112.63 0.251629C112.695 0.2318 112.763 0.225051 112.831 0.23177H115.451V5.44294L119.515 0.239089H123.053L118.459 5.91868L123.209 12.4668ZM106.8 7.80699C106.104 6.54812 101.889 0.243969 101.889 0.243969H98.5487V12.4717H101.645V4.74763L106.768 12.4668H109.84V0.239089H106.79L106.8 7.80699ZM93.3814 0.243969L97.0727 12.4717H93.8108L93.2057 10.4101H88.9949L88.4118 12.4717H85.1353L88.7753 0.656276C88.8104 0.526371 88.8905 0.413149 89.0013 0.336756C89.1121 0.260363 89.2464 0.225755 89.3803 0.239089L93.3814 0.243969ZM92.6641 8.05096L91.1784 2.57631H91.0295L89.534 8.05096H92.6641ZM84.4668 9.08295C84.4668 11.5641 82.4077 12.4644 79.6143 12.4644H74.6495V0.788018C74.6498 0.714989 74.6646 0.642748 74.6931 0.575492C74.7215 0.508236 74.7631 0.447305 74.8153 0.396235C74.8675 0.345165 74.9293 0.304975 74.9972 0.277998C75.0651 0.251022 75.1376 0.237796 75.2106 0.239089H79.6801C81.9417 0.239089 83.9813 0.941719 83.9813 3.2765C83.9813 4.74031 83.4031 5.76742 82.1613 6.10653C83.4617 6.36026 84.4766 7.31906 84.4766 9.08295H84.4668ZM77.5698 5.14774H79.2776C80.5291 5.14774 81.0805 4.74519 81.0805 3.79127C81.0805 2.83735 80.4901 2.46652 79.3532 2.46652H77.5722L77.5698 5.14774ZM81.4733 8.77067C81.4733 7.74112 80.8683 7.30686 79.5801 7.30686H77.5625V10.2125H79.4703C80.7463 10.2125 81.4806 9.81729 81.4806 8.77067H81.4733ZM13.9355 14.8699H0V18H13.9428L13.9355 14.8699ZM43.8216 8.93657L45.2196 12.4644H41.9333L40.4841 9.09759C40.1865 8.41204 39.9791 8.07292 39.3521 8.07292H38.0786V12.4644H35.0046V0.729466C35.0174 0.604426 35.0729 0.487625 35.1618 0.398746C35.2507 0.309866 35.3675 0.254342 35.4925 0.241529H39.8327C42.1895 0.241529 44.2095 0.729467 44.2095 3.77663C44.2095 5.13798 43.4557 6.53348 42.0407 6.81648C42.7335 7.05313 43.4435 7.95581 43.829 8.93901L43.8216 8.93657ZM41.2551 4.0084C41.2551 2.83004 40.5232 2.59583 39.6132 2.59583H38.0762V5.66007H39.6132C40.5329 5.66007 41.2551 5.17213 41.2551 4.0084ZM19.0222 0.239089H16.3386V12.4668H19.4882V0.729466C19.4844 0.604734 19.4348 0.485769 19.3488 0.395308C19.2629 0.304846 19.1466 0.249231 19.0222 0.239089ZM32.1453 5.42586H28.1735V7.9241H29.6861V10.0808C29.2339 10.1393 28.7782 10.1662 28.3223 10.1613C26.0217 10.1613 24.775 8.69748 24.775 6.33586C24.775 4.12551 25.8509 2.59583 28.1564 2.59583C29.1358 2.63285 30.0993 2.85469 30.9962 3.24966L32.2307 1.14665C31.2329 0.475739 29.6861 0.00487948 27.9222 0.00487948C23.9138 0.00487948 21.5107 2.59583 21.5107 6.34806C21.5107 10.5419 23.9138 12.7156 28.4736 12.7156C29.8722 12.7138 31.2675 12.579 32.6406 12.3131V5.98211C32.6473 5.9125 32.6396 5.84225 32.6179 5.77577C32.5962 5.70929 32.561 5.64801 32.5145 5.59578C32.468 5.54354 32.4112 5.50149 32.3476 5.47225C32.2841 5.44301 32.2152 5.42722 32.1453 5.42586ZM57.8913 6.33586C57.8913 9.87585 55.7688 12.7034 52.019 12.7034C48.0155 12.7034 45.8978 9.87585 45.8978 6.33586C45.8978 2.79588 48.0155 0.00487948 52.019 0.00487948C55.7688 0.00487948 57.8913 2.83004 57.8913 6.33586ZM54.5928 6.33586C54.5928 3.77419 53.434 2.59583 52.019 2.59583C50.3698 2.59583 49.1963 3.77419 49.1963 6.33586C49.1963 8.93901 50.3698 10.1125 52.019 10.1125C53.434 10.1125 54.5928 8.93901 54.5928 6.33586ZM64.7322 4.83058C63.6758 4.51342 62.8341 4.18894 62.8341 3.55462C62.8341 2.9203 63.4904 2.47384 64.6492 2.47384C65.6105 2.47384 66.4692 2.86419 67.3085 3.36677L69.0138 1.42966C68.2429 0.69775 66.7303 0 64.7761 0C61.8192 0 59.5479 1.42966 59.5479 3.98645C59.5479 6.36026 61.6021 7.06289 63.366 7.56791C64.8298 7.98753 65.9423 8.23882 65.9423 9.06099C65.9423 9.93928 64.9444 10.0905 64.154 10.0905C62.7609 10.0905 61.2483 9.35863 60.4701 8.89753L59.077 11.3689C59.9333 11.9569 61.8533 12.6986 63.9198 12.6986C67.1499 12.6986 69.1651 10.9639 69.1651 8.44131C69.1553 5.99919 66.6034 5.40634 64.7322 4.83058ZM7.06289 7.1434L4.1865 0.239089H0V12.4668H3.12768V5.40634L6.10653 12.4668H7.77772L10.8127 5.40634V12.4668H13.9428V0.239089H10.0735L7.06289 7.1434Z" fill="#144B3C">
                </path>
            </svg>