<?xml version="1.0" encoding="utf-8"?>
<!-- Generator: Adobe Illustrator 19.2.0, SVG Export Plug-In . SVG Version: 6.00 Build 0)  -->
<svg version="1.1" baseProfile="tiny" id="text" xmlns="http://www.w3.org/2000/svg" xmlns:xlink="http://www.w3.org/1999/xlink"
	 x="0px" y="0px" viewBox="0 0 261 65" xml:space="preserve">
<g>
	<path fill="#FA5B35" d="M23.13,0.897c11.65,0,20.917,9.267,20.917,20.917c0,11.651-9.267,20.917-20.917,20.917
		c-11.651,0-20.917-9.266-20.917-20.917C2.213,10.164,11.479,0.897,23.13,0.897z M12.694,13.087v3.463h20.872v-3.463H12.694z
		 M33.566,30.541V20.059H12.694v10.481h3.464v-3.959c0-1.124,0.27-1.754,0.674-2.204c0.45-0.539,1.125-0.854,1.935-0.854
		c0.81,0,1.484,0.315,1.934,0.854c0.405,0.45,0.675,1.08,0.675,2.204v3.959h3.509v-3.959c0-1.124,0.27-1.754,0.675-2.204
		c0.45-0.539,1.125-0.854,1.934-0.854s1.484,0.315,1.934,0.854c0.405,0.45,0.675,1.08,0.675,2.204v3.959H33.566z"/>
	<path fill="#323232" d="M56.782,13.942c0,3.778,5.398,4.543,9.446,6.882c2.519,1.439,4.588,3.779,4.588,7.737
		c0,5.667-4.633,9.222-9.761,9.222c-5.128,0-8.817-2.475-10.256-4.049l2.024-4.274h0.18c1.709,1.665,4.318,3.239,7.692,3.239
		c2.205,0,4.588-1.305,4.588-3.869c0-3.823-5.398-4.588-9.446-6.927c-2.519-1.439-4.588-3.778-4.588-7.737
		c0-5.668,4.678-9.222,9.896-9.222c4.903,0,8.232,2.475,9.671,3.824l-2.024,4.273h-0.18c-1.754-1.575-3.958-3.015-7.017-3.015
		C59.166,10.028,56.782,11.333,56.782,13.942z M71.626,19.115h5.308l3.148,9.132h0.18l4.453-12.73h3.599l4.678,12.865h0.18
		l4.498-12.865h5.038l-7.692,21.591h-3.509l-4.948-13.584h-0.18l-4.768,13.584h-3.599L71.626,19.115z M104.914,6.52h5.353v5.173
		h-5.353V6.52z M105.004,15.516h5.173v21.591h-5.173V15.516z M122.232,37.783c-3.059,0-6.028-1.17-8.097-3.148l1.439-3.87h0.18
		c1.619,1.439,3.688,2.565,6.072,2.565c1.799,0,2.969-0.765,2.969-2.115c0-1.395-1.485-1.935-3.329-2.52
		c-2.969-0.944-6.882-2.384-6.882-6.882c0-4.139,3.239-6.973,7.872-6.973c2.519,0,5.083,0.899,7.197,2.564l-1.439,3.913h-0.18
		c-1.53-1.215-3.509-2.024-5.173-2.024c-2.024,0-3.194,0.765-3.194,2.114c0,1.395,1.484,1.935,3.329,2.52
		c2.969,0.944,6.882,2.384,6.882,6.882C129.879,34.949,126.641,37.783,122.232,37.783z M140.72,37.783
		c-3.059,0-6.028-1.17-8.097-3.148l1.439-3.87h0.18c1.619,1.439,3.688,2.565,6.073,2.565c1.799,0,2.969-0.765,2.969-2.115
		c0-1.395-1.484-1.935-3.329-2.52c-2.969-0.944-6.882-2.384-6.882-6.882c0-4.139,3.239-6.973,7.872-6.973
		c2.519,0,5.083,0.899,7.197,2.564l-1.439,3.913h-0.18c-1.53-1.215-3.509-2.024-5.174-2.024c-2.024,0-3.193,0.765-3.193,2.114
		c0,1.395,1.484,1.935,3.328,2.52c2.97,0.944,6.883,2.384,6.883,6.882C148.367,34.949,145.129,37.783,140.72,37.783z
		 M172.163,15.516v31.039h-5.173V35.533c-1.484,1.395-3.644,2.25-5.713,2.25c-6.117,0-10.031-4.725-10.031-11.247
		c0-6.117,4.184-11.695,10.571-11.695c1.979,0,3.913,0.765,5.442,1.979h0.181v-1.305H172.163z M166.99,21.139
		c-1.08-0.99-2.789-1.574-4.363-1.574c-3.688,0-6.073,2.879-6.073,6.927c0,3.644,2.069,6.567,5.758,6.567
		c1.755,0,3.419-0.674,4.679-2.023V21.139z M181.699,28.426c0,1.89,0.315,2.699,0.855,3.374c0.674,0.81,1.754,1.348,2.969,1.348
		c1.214,0,2.294-0.539,2.969-1.348c0.54-0.675,0.854-1.484,0.854-3.374v-12.91h5.173v12.37c0,3.509-0.944,5.713-2.563,7.288
		c-1.62,1.619-3.914,2.609-6.658,2.609c-2.519,0-4.723-0.945-6.297-2.52c-1.575-1.574-2.475-3.824-2.475-7.377v-12.37h5.173V28.426z
		 M198.073,26.537c0-6.882,4.679-11.695,11.246-11.695s11.245,4.813,11.245,11.246c0,6.882-4.678,11.696-11.245,11.696
		S198.073,32.969,198.073,26.537z M209.319,19.565c-3.464,0-5.938,2.924-5.938,6.747s2.475,6.747,5.938,6.747
		s5.938-2.923,5.938-6.747S212.783,19.565,209.319,19.565z M238.108,32.879v4.003c-1.395,0.584-2.924,0.9-4.634,0.9
		c-2.294,0-4.003-0.676-5.173-1.846c-1.26-1.258-1.89-3.103-1.89-6.386v-9.537h-4.947v-4.498h4.947V8.319h5.174v7.197h6.522v4.498
		h-6.522v10.211c0,1.125,0.225,1.755,0.584,2.159c0.63,0.719,1.665,0.901,2.789,0.901c1.17,0,2.564-0.271,2.969-0.406H238.108z
		 M250.793,37.783c-6.297,0-11.021-4.453-11.021-11.247c0-6.207,3.778-11.695,10.481-11.695c5.713,0,9.536,4.543,9.536,10.796v1.709
		h-14.619c0.135,3.374,2.474,5.894,5.893,5.894c2.204,0,4.229-0.901,6.072-2.43h0.18l1.935,3.598
		C257.226,36.568,254.212,37.783,250.793,37.783z M254.617,23.298c-0.045-2.024-1.62-4.049-4.273-4.049
		c-2.609,0-4.363,1.755-4.903,4.049H254.617z"/>
	
</g>
</svg>
