<?xml version="1.0" encoding="UTF-8"?>
<svg width="200px" height="31px" viewBox="0 0 200 31" version="1.1" xmlns="http://www.w3.org/2000/svg" xmlns:xlink="http://www.w3.org/1999/xlink">
   <title>B6044B02-0DF1-42BB-9D2F-FF932BA762E8</title>
    <desc>Created with sketchtool.</desc>
    <g id="Layout-V2" stroke="none" stroke-width="1" fill="none" fill-rule="evenodd">
        <g id="accueil_b_v1" transform="translate(-135.000000, -24.000000)">
            <g id="top_nav">
                <g id="logo" transform="translate(135.000000, 24.000000)">
                    <path d="M21.1410347,10.090617 L13.5497182,10.090617 L13.5497182,30.6529563 L7.45234501,30.6529563 L7.45234501,10.090617 L0,10.090617 L0,5.38817481 L21.1410347,5.38817481 L21.1410347,10.090617 Z M31.8058715,17.1703085 L29.8776424,17.031491 C28.0362613,17.031491 26.8550156,17.6098914 26.33387,18.7667095 L26.33387,30.6529563 L20.4796968,30.6529563 L20.4796968,11.877892 L25.9690699,11.877892 L26.1601556,14.2898458 C27.1445418,12.4505049 28.5168713,11.5308483 30.2771854,11.5308483 C30.9025601,11.5308483 31.4468596,11.6002564 31.9101001,11.7390746 L31.8058715,17.1703085 Z M44.5045624,30.6529563 C44.2961042,30.2712063 44.1108107,29.7101579 43.9486765,28.9697943 C42.8716423,30.3232715 41.3661331,31 39.4321038,31 C37.6602087,31 36.1546995,30.4649796 34.9155311,29.3949229 C33.6763626,28.3248661 33.0567877,26.9800852 33.0567877,25.3605398 C33.0567877,23.3245399 33.8095423,21.7859949 35.315074,20.7448586 C36.8206058,19.7037223 39.0093845,19.183162 41.8814759,19.183162 L43.688105,19.183162 L43.688105,18.1940874 C43.688105,16.4704284 42.9411408,15.6086118 41.4471901,15.6086118 C40.0574685,15.6086118 39.3626181,16.2911243 39.3626181,17.6561697 L33.5084449,17.6561697 C33.5084449,15.8399652 34.281466,14.3650442 35.8275313,13.2313625 C37.3735966,12.0976807 39.3452346,11.5308483 41.7425045,11.5308483 C44.1397743,11.5308483 46.0332416,12.1150327 47.4229632,13.283419 C48.8126849,14.4518053 49.5249065,16.0539744 49.5596496,18.0899743 L49.5596496,26.401671 C49.5828116,28.12533 49.8491709,29.4440828 50.3587355,30.3579692 L50.3587355,30.6529563 L44.5045624,30.6529563 Z M40.8391899,26.8354756 C41.5687938,26.8354756 42.1738927,26.6793075 42.6545047,26.3669666 C43.1351168,26.0546257 43.4796468,25.7018015 43.688105,25.3084833 L43.688105,22.3065553 L41.9857045,22.3065553 C39.9474461,22.3065553 38.9283322,23.2204279 38.9283322,25.0482005 C38.9283322,25.5803369 39.1078352,26.0112451 39.4668467,26.3409383 C39.8258581,26.6706315 40.2833013,26.8354756 40.8391899,26.8354756 Z M51.0589756,21.1266067 C51.0589756,18.1535841 51.7017122,15.8110625 52.9872047,14.0989717 C54.2726972,12.3868809 56.0677274,11.5308483 58.3723491,11.5308483 C60.0515961,11.5308483 61.4644585,12.1902248 62.6109789,13.5089974 L62.6109789,4 L68.4825234,4 L68.4825234,30.6529563 L63.2189791,30.6529563 L62.9236647,28.6401028 C61.7192393,30.2133755 60.1905684,31 58.3376062,31 C56.1024706,31 54.3306021,30.1439674 53.0219476,28.4318766 C51.713293,26.7197858 51.0589756,24.2847202 51.0589756,21.1266067 Z M56.9131487,21.4910026 C56.9131487,24.8226388 57.8859392,26.4884319 59.8315495,26.4884319 C61.128623,26.4884319 62.0550902,25.9447355 62.6109789,24.8573265 L62.6109789,17.7082262 C62.0782523,16.5976808 61.1633659,16.0424165 59.8662924,16.0424165 C58.0596543,16.0424165 57.0810733,17.4999854 56.9305201,20.4151671 L56.9131487,21.4910026 Z M79.900938,31 C77.0172656,31 74.6837264,30.1410754 72.9002503,28.4232005 C71.1167742,26.7053256 70.2250495,24.4698081 70.2250495,21.716581 L70.2250495,21.2307198 C70.2250495,19.3104017 70.5811603,17.6156886 71.2933927,16.1465296 C72.005625,14.6773705 73.0450054,13.5408138 74.411565,12.7368252 C75.7781246,11.9328366 77.3994422,11.5308483 79.2755664,11.5308483 C81.9160375,11.5308483 84.0005887,12.3492849 85.5292825,13.9861825 C87.0579763,15.6230802 87.8223117,17.9048697 87.8223117,20.8316195 L87.8223117,23.1047558 L76.1834512,23.1047558 C76.3919095,24.1574603 76.8493526,24.9845728 77.5557945,25.5861183 C78.2622363,26.1876637 79.1771226,26.4884319 80.300481,26.4884319 C82.1534431,26.4884319 83.6010481,25.8406234 84.6433394,24.5449871 L87.3185401,27.7030848 C86.5889363,28.7095166 85.5553463,29.5106011 84.2177392,30.1063625 C82.8801322,30.7021238 81.4412128,31 79.900938,31 Z M79.2408235,16.0424165 C77.5268335,16.0424165 76.5077196,17.1760812 76.1834512,19.4434447 L82.0897386,19.4434447 L82.0897386,18.9922879 C82.1129007,18.0552652 81.8754934,17.3293728 81.3775098,16.8145887 C80.8795263,16.2998046 80.1673046,16.0424165 79.2408235,16.0424165 Z M89.944145,30.6529563 L89.944145,5.38817481 L98.0913474,5.38817481 C100.326483,5.38817481 102.335759,5.89427514 104.119235,6.906491 C105.902711,7.91870686 107.295307,9.34735581 108.297065,11.1924807 C109.298822,13.0376056 109.805484,15.105387 109.817065,17.3958869 L109.817065,18.5584833 C109.817065,20.8721195 109.327775,22.9456849 108.349179,24.7792416 C107.370583,26.6127984 105.992463,28.0472313 104.214778,29.0825835 C102.437092,30.1179358 100.453873,30.6413881 98.2650617,30.6529563 L89.944145,30.6529563 Z M96.0415182,10.090617 L96.0415182,25.9678663 L98.1608331,25.9678663 C99.9095662,25.9678663 101.252944,25.3460859 102.191006,24.1025064 C103.129068,22.8589269 103.598092,21.0109377 103.598092,18.5584833 L103.598092,17.4652956 C103.598092,15.0244094 103.129068,13.1850962 102.191006,11.9473008 C101.252944,10.7095054 99.8864045,10.090617 98.0913474,10.090617 L96.0415182,10.090617 Z M117.34697,30.6529563 L111.475425,30.6529563 L111.475425,11.877892 L117.34697,11.877892 L117.34697,30.6529563 Z M111.127997,7.03663239 C111.127997,6.20372334 111.429098,5.52121089 112.031311,4.98907455 C112.633524,4.45693821 113.415231,4.19087404 114.376455,4.19087404 C115.337679,4.19087404 116.119386,4.45693821 116.721598,4.98907455 C117.323811,5.52121089 117.624913,6.20372334 117.624913,7.03663239 C117.624913,7.86954144 117.323811,8.55205389 116.721598,9.08419023 C116.119386,9.61632657 115.337679,9.88239075 114.376455,9.88239075 C113.415231,9.88239075 112.633524,9.61632657 112.031311,9.08419023 C111.429098,8.55205389 111.127997,7.86954144 111.127997,7.03663239 Z M130.817905,17.1703085 L128.889676,17.031491 C127.048295,17.031491 125.867049,17.6098914 125.345903,18.7667095 L125.345903,30.6529563 L119.49173,30.6529563 L119.49173,11.877892 L124.981103,11.877892 L125.172189,14.2898458 C126.156575,12.4505049 127.528905,11.5308483 129.289219,11.5308483 C129.914593,11.5308483 130.458893,11.6002564 130.922134,11.7390746 L130.817905,17.1703085 Z M141.521399,31 C138.637727,31 136.304188,30.1410754 134.520712,28.4232005 C132.737236,26.7053256 131.845511,24.4698081 131.845511,21.716581 L131.845511,21.2307198 C131.845511,19.3104017 132.201622,17.6156886 132.913854,16.1465296 C133.626086,14.6773705 134.665467,13.5408138 136.032026,12.7368252 C137.398586,11.9328366 139.019904,11.5308483 140.896028,11.5308483 C143.536499,11.5308483 145.62105,12.3492849 147.149744,13.9861825 C148.678438,15.6230802 149.442773,17.9048697 149.442773,20.8316195 L149.442773,23.1047558 L137.803913,23.1047558 C138.012371,24.1574603 138.469814,24.9845728 139.176256,25.5861183 C139.882698,26.1876637 140.797584,26.4884319 141.920942,26.4884319 C143.773905,26.4884319 145.221509,25.8406234 146.263801,24.5449871 L148.939001,27.7030848 C148.209398,28.7095166 147.175808,29.5106011 145.838201,30.1063625 C144.500594,30.7021238 143.061674,31 141.521399,31 Z M140.861285,16.0424165 C139.147295,16.0424165 138.128181,17.1760812 137.803913,19.4434447 L143.7102,19.4434447 L143.7102,18.9922879 C143.733362,18.0552652 143.495955,17.3293728 142.997971,16.8145887 C142.499988,16.2998046 141.787766,16.0424165 140.861285,16.0424165 Z M159.242953,26.4884319 C160.065205,26.4884319 160.702151,26.2657477 161.153811,25.8203728 C161.60547,25.3749978 161.825506,24.7532174 161.813925,23.9550129 L167.303298,23.9550129 C167.303298,26.0141491 166.56502,27.7030782 165.08844,29.0218509 C163.611861,30.3406236 161.709708,31 159.381924,31 C156.648805,31 154.494769,30.1439674 152.919751,28.4318766 C151.344733,26.7197858 150.557236,24.3483442 150.557236,21.3174807 L150.557236,21.0745501 C150.557236,19.1773684 150.907557,17.5028993 151.608208,16.0510925 C152.308859,14.5992858 153.319288,13.4829731 154.639523,12.7021208 C155.959759,11.9212686 157.523172,11.5308483 159.32981,11.5308483 C161.773404,11.5308483 163.713195,12.2075768 165.14924,13.561054 C166.585286,14.9145312 167.303298,16.7480604 167.303298,19.0616967 L161.813925,19.0616967 C161.813925,18.0899694 161.576518,17.3438329 161.101696,16.8232648 C160.626875,16.3026966 159.989929,16.0424165 159.190839,16.0424165 C157.673726,16.0424165 156.787792,17.0083451 156.533009,18.9402314 C156.451942,19.553345 156.411409,20.3978095 156.411409,21.4736504 C156.411409,23.3592639 156.637236,24.6664488 157.088895,25.3952442 C157.540555,26.1240396 158.258567,26.4884319 159.242953,26.4884319 Z M176.095935,7.21015424 L176.095935,11.877892 L179.18805,11.877892 L179.18805,15.9383033 L176.095935,15.9383033 L176.095935,24.527635 C176.095935,25.233294 176.223324,25.7249343 176.478106,26.0025707 C176.732889,26.280207 177.236655,26.4190231 177.989421,26.4190231 C178.568472,26.4190231 179.054867,26.3843191 179.448622,26.31491 L179.448622,30.4967866 C178.394749,30.8322639 177.29457,31 176.148049,31 C174.132953,31 172.644815,30.5257117 171.683591,29.5771208 C170.722367,28.62853 170.241762,27.188313 170.241762,25.2564267 L170.241762,15.9383033 L167.844504,15.9383033 L167.844504,11.877892 L170.241762,11.877892 L170.241762,7.21015424 L176.095935,7.21015424 Z" id="TradeDirect" fill="#000000" fill-rule="nonzero"></path>
                    <rect id="Rectangle" fill="#FF5B97" x="182.957393" y="7" width="4.01002506" height="9"></rect>
                    <rect id="Rectangle" fill="#396CFF" x="195.989975" y="0" width="4.01002506" height="16"></rect>
                    <rect id="Rectangle" fill="#31D5DB" x="189.473684" y="4" width="4.01002506" height="12"></rect>
                </g>
            </g>
        </g>
    </g>
</svg>
